<mxfile host="65bd71144e">
    <diagram id="CdUoMVivL2xThNJutTjM" name="Seite-1">
        <mxGraphModel dx="1022" dy="800" grid="1" gridSize="10" guides="1" tooltips="1" connect="1" arrows="1" fold="1" page="1" pageScale="1" pageWidth="2336" pageHeight="1654" math="0" shadow="0">
            <root>
                <mxCell id="0"/>
                <mxCell id="1" parent="0"/>
                <mxCell id="14" style="edgeStyle=none;html=1;entryX=0;entryY=0.5;entryDx=0;entryDy=0;fontSize=16;" edge="1" parent="1" source="2" target="7">
                    <mxGeometry relative="1" as="geometry">
                        <Array as="points">
                            <mxPoint x="160" y="100"/>
                        </Array>
                    </mxGeometry>
                </mxCell>
                <mxCell id="2" value="capturing alias" style="rounded=1;whiteSpace=wrap;html=1;fillColor=#f5f5f5;gradientColor=#b3b3b3;strokeColor=#666666;fontSize=16;" vertex="1" parent="1">
                    <mxGeometry x="40" y="40" width="240" height="40" as="geometry"/>
                </mxCell>
                <mxCell id="3" value="Manuelle User-Registrierung für Admin (10.12.2022)" style="rounded=1;whiteSpace=wrap;html=1;fillColor=#f5f5f5;gradientColor=#b3b3b3;strokeColor=#666666;fontSize=16;" vertex="1" parent="1">
                    <mxGeometry x="40" y="200" width="440" height="40" as="geometry"/>
                </mxCell>
                <mxCell id="4" value="Zeitzone" style="rounded=1;whiteSpace=wrap;html=1;fillColor=#f5f5f5;gradientColor=#b3b3b3;strokeColor=#666666;fontSize=16;" vertex="1" parent="1">
                    <mxGeometry x="40" y="280" width="440" height="40" as="geometry"/>
                </mxCell>
                <mxCell id="5" value="User-Beziehungen und Favoritenverwaltung" style="rounded=1;whiteSpace=wrap;html=1;fillColor=#f5f5f5;gradientColor=#b3b3b3;strokeColor=#666666;fontSize=16;" vertex="1" parent="1">
                    <mxGeometry x="40" y="360" width="440" height="40" as="geometry"/>
                </mxCell>
                <mxCell id="6" value="Layout" style="rounded=1;whiteSpace=wrap;html=1;fillColor=#f5f5f5;gradientColor=#b3b3b3;strokeColor=#666666;fontSize=16;" vertex="1" parent="1">
                    <mxGeometry x="40" y="440" width="440" height="40" as="geometry"/>
                </mxCell>
                <mxCell id="15" style="edgeStyle=none;html=1;entryX=0;entryY=0.5;entryDx=0;entryDy=0;fontSize=16;" edge="1" parent="1" source="7" target="12">
                    <mxGeometry relative="1" as="geometry">
                        <Array as="points">
                            <mxPoint x="440" y="140"/>
                        </Array>
                    </mxGeometry>
                </mxCell>
                <mxCell id="7" value="Passwort-Verschlüsselung" style="rounded=1;whiteSpace=wrap;html=1;fillColor=#f5f5f5;gradientColor=#b3b3b3;strokeColor=#666666;fontSize=16;" vertex="1" parent="1">
                    <mxGeometry x="320" y="80" width="240" height="40" as="geometry"/>
                </mxCell>
                <mxCell id="8" value="Subgruppierung / Subcommunities" style="rounded=1;whiteSpace=wrap;html=1;fillColor=#f5f5f5;gradientColor=#b3b3b3;strokeColor=#666666;fontSize=16;" vertex="1" parent="1">
                    <mxGeometry x="40" y="520" width="440" height="40" as="geometry"/>
                </mxCell>
                <mxCell id="9" value="Contribution-Categories" style="rounded=1;whiteSpace=wrap;html=1;fillColor=#f5f5f5;gradientColor=#b3b3b3;strokeColor=#666666;fontSize=16;" vertex="1" parent="1">
                    <mxGeometry x="40" y="600" width="440" height="40" as="geometry"/>
                </mxCell>
                <mxCell id="10" value="backend access layer" style="rounded=1;whiteSpace=wrap;html=1;fillColor=#f5f5f5;gradientColor=#b3b3b3;strokeColor=#666666;fontSize=16;" vertex="1" parent="1">
                    <mxGeometry x="40" y="680" width="440" height="40" as="geometry"/>
                </mxCell>
                <mxCell id="11" value="Statistics / Analysen" style="rounded=1;whiteSpace=wrap;html=1;fillColor=#f5f5f5;gradientColor=#b3b3b3;strokeColor=#666666;fontSize=16;" vertex="1" parent="1">
                    <mxGeometry x="40" y="760" width="440" height="40" as="geometry"/>
                </mxCell>
                <mxCell id="12" value="Ablösung der Email und Ersatz durch GradidoID" style="rounded=1;whiteSpace=wrap;html=1;fillColor=#f5f5f5;gradientColor=#b3b3b3;strokeColor=#666666;fontSize=16;" vertex="1" parent="1">
                    <mxGeometry x="600" y="120" width="360" height="40" as="geometry"/>
                </mxCell>
                <mxCell id="13" value="Dezentralisierung / Federation" style="rounded=1;whiteSpace=wrap;html=1;fillColor=#f5f5f5;gradientColor=#b3b3b3;strokeColor=#666666;fontSize=16;" vertex="1" parent="1">
                    <mxGeometry x="40" y="840" width="440" height="40" as="geometry"/>
                </mxCell>
            </root>
        </mxGraphModel>
    </diagram>
</mxfile>